<svg width="601" height="454" viewBox="0 0 601 454" fill="none" xmlns="http://www.w3.org/2000/svg">
<g clip-path="url(#clip0_2006_63)">
<g filter="url(#filter0_d_2006_63)">
<path fill-rule="evenodd" clip-rule="evenodd" d="M54 1C54 30.8234 29.8234 55 0 55V400C29.8234 400 54 424.177 54 454H546C546 424.177 570.177 400 600 400V55C570.177 55 546 30.8234 546 1H54Z" fill="#13271D"/>
<mask id="mask0_2006_63" style="mask-type:luminance" maskUnits="userSpaceOnUse" x="0" y="1" width="600" height="453">
<path fill-rule="evenodd" clip-rule="evenodd" d="M54 1C54 30.8234 29.8234 55 0 55V400C29.8234 400 54 424.177 54 454H546C546 424.177 570.177 400 600 400V55C570.177 55 546 30.8234 546 1H54Z" fill="white"/>
</mask>
<g mask="url(#mask0_2006_63)">
<path d="M0 55V54H-1V55H0ZM54 1V0H53V1H54ZM0 400H-1V401H0V400ZM54 454H53V455H54V454ZM546 454V455H547V454H546ZM600 400V401H601V400H600ZM600 55H601V54H600V55ZM546 1H547V0H546V1ZM0 56C30.3757 56 55 31.3757 55 1H53C53 30.2711 29.2711 54 0 54V56ZM1 400V55H-1V400H1ZM0 401C29.2711 401 53 424.729 53 454H55C55 423.624 30.3757 399 0 399V401ZM546 453H54V455H546V453ZM600 399C569.624 399 545 423.624 545 454H547C547 424.729 570.729 401 600 401V399ZM599 55V400H601V55H599ZM545 1C545 31.3757 569.624 56 600 56V54C570.729 54 547 30.2711 547 1H545ZM54 2H546V0H54V2Z" fill="#282E29"/>
</g>
</g>
<path fill-rule="evenodd" clip-rule="evenodd" d="M73.68 19C73.68 46.4375 51.4375 68.68 24 68.68L24.0001 386.08C51.3508 386.08 73.5394 408.182 73.6794 435.5H526.321C526.461 408.182 548.649 386.08 576 386.08V68.6801C548.563 68.6801 526.32 46.4376 526.32 19.0001C526.32 18.8332 526.321 18.6665 526.323 18.5H73.6775C73.6792 18.6665 73.68 18.8331 73.68 19Z" fill="#1B2B23"/>
<mask id="mask1_2006_63" style="mask-type:luminance" maskUnits="userSpaceOnUse" x="24" y="18" width="552" height="418">
<path fill-rule="evenodd" clip-rule="evenodd" d="M73.68 19C73.68 46.4375 51.4375 68.68 24 68.68L24.0001 386.08C51.3508 386.08 73.5394 408.182 73.6794 435.5H526.321C526.461 408.182 548.649 386.08 576 386.08V68.6801C548.563 68.6801 526.32 46.4376 526.32 19.0001C526.32 18.8332 526.321 18.6665 526.323 18.5H73.6775C73.6792 18.6665 73.68 18.8331 73.68 19Z" fill="white"/>
</mask>
<g mask="url(#mask1_2006_63)">
<path d="M24 68.68V67.68H23V68.68H24ZM24.0001 386.08H23.0001V387.08H24.0001V386.08ZM73.6794 435.5L72.6794 435.505L72.6845 436.5H73.6794V435.5ZM526.321 435.5V436.5H527.316L527.321 435.505L526.321 435.5ZM576 386.08V387.08H577V386.08H576ZM576 68.6801H577V67.6801H576V68.6801ZM526.323 18.5L527.322 18.5099L527.332 17.5H526.323V18.5ZM73.6775 18.5V17.5H72.6676L72.6776 18.5099L73.6775 18.5ZM24 69.68C51.9898 69.68 74.68 46.9898 74.68 19H72.68C72.68 45.8852 50.8852 67.68 24 67.68V69.68ZM25.0001 386.08L25 68.68H23L23.0001 386.08H25.0001ZM24.0001 387.08C50.8003 387.08 72.5422 408.737 72.6794 435.505L74.6794 435.495C74.5366 407.627 51.9014 385.08 24.0001 385.08V387.08ZM526.321 434.5H73.6794V436.5H526.321V434.5ZM576 385.08C548.099 385.08 525.464 407.627 525.321 435.495L527.321 435.505C527.458 408.737 549.2 387.08 576 387.08V385.08ZM575 68.6801V386.08H577V68.6801H575ZM525.32 19.0001C525.32 46.9898 548.01 69.6801 576 69.6801V67.6801C549.115 67.6801 527.32 45.8853 527.32 19.0001H525.32ZM525.323 18.4901C525.321 18.6599 525.32 18.8299 525.32 19.0001H527.32C527.32 18.8365 527.321 18.6731 527.322 18.5099L525.323 18.4901ZM73.6775 19.5H526.323V17.5H73.6775V19.5ZM74.68 19C74.68 18.8298 74.6792 18.6599 74.6775 18.4901L72.6776 18.5099C72.6792 18.673 72.68 18.8364 72.68 19H74.68Z" fill="#282E29"/>
</g>
</g>
<defs>
<filter id="filter0_d_2006_63" x="-19" y="-18" width="640" height="493" filterUnits="userSpaceOnUse" color-interpolation-filters="sRGB">
<feFlood flood-opacity="0" result="BackgroundImageFix"/>
<feColorMatrix in="SourceAlpha" type="matrix" values="0 0 0 0 0 0 0 0 0 0 0 0 0 0 0 0 0 0 127 0" result="hardAlpha"/>
<feOffset dx="1" dy="1"/>
<feGaussianBlur stdDeviation="10"/>
<feComposite in2="hardAlpha" operator="out"/>
<feColorMatrix type="matrix" values="0 0 0 0 0 0 0 0 0 0 0 0 0 0 0 0 0 0 0.25 0"/>
<feBlend mode="normal" in2="BackgroundImageFix" result="effect1_dropShadow_2006_63"/>
<feBlend mode="normal" in="SourceGraphic" in2="effect1_dropShadow_2006_63" result="shape"/>
</filter>
<clipPath id="clip0_2006_63">
<rect width="601" height="454" fill="white"/>
</clipPath>
</defs>
</svg>
