<svg width="109" height="33" viewBox="0 0 109 33" fill="none" xmlns="http://www.w3.org/2000/svg">
<g filter="url(#filter0_diii_23_265)">
<path d="M12.6699 6.008C12.5845 5.41067 12.4565 4.86667 12.2859 4.376C12.1152 3.864 11.8592 3.416 11.5179 3.032C11.1765 2.648 10.7392 2.34933 10.2059 2.136C9.69388 1.90133 9.04321 1.76267 8.25388 1.72C6.82454 1.72 5.76854 2.08267 5.08588 2.808C4.42454 3.512 4.09388 4.38667 4.09388 5.432C4.09388 6.09333 4.21121 6.65867 4.44588 7.128C4.68054 7.59733 5.01121 8.01333 5.43788 8.376C5.86454 8.73867 6.37654 9.08 6.97388 9.4C7.57121 9.69867 8.23254 10.0293 8.95788 10.392C9.68321 10.7547 10.4192 11.1707 11.1659 11.64C11.9125 12.088 12.5845 12.6 13.1819 13.176C13.8005 13.7307 14.3019 14.3493 14.6859 15.032C15.0699 15.7147 15.2619 16.4613 15.2619 17.272C15.2619 18.2747 15.0805 19.16 14.7179 19.928C14.3552 20.6747 13.8539 21.3147 13.2139 21.848C12.5739 22.36 11.8059 22.744 10.9099 23C10.0139 23.2773 9.03254 23.416 7.96588 23.416C7.49654 23.416 7.03788 23.3947 6.58988 23.352C6.16321 23.3307 5.70454 23.256 5.21388 23.128C4.72321 23.0213 4.18988 22.872 3.61388 22.68C3.03788 22.4667 2.39788 22.1893 1.69388 21.848C1.65121 21.656 1.59788 21.368 1.53387 20.984C1.49121 20.6 1.44854 20.1733 1.40588 19.704C1.36321 19.2347 1.32054 18.7653 1.27788 18.296C1.23521 17.8267 1.20321 17.4107 1.18188 17.048L2.26988 16.952C2.41921 17.464 2.61121 18.0293 2.84588 18.648C3.08054 19.2453 3.42188 19.8 3.86988 20.312C4.31788 20.824 4.89388 21.2507 5.59788 21.592C6.32321 21.9333 7.22988 22.104 8.31788 22.104C9.59788 22.104 10.6539 21.7947 11.4859 21.176C12.3179 20.5573 12.7339 19.6613 12.7339 18.488C12.7339 17.8053 12.6059 17.176 12.3499 16.6C12.0939 16.024 11.7312 15.4907 11.2619 15C10.8139 14.5093 10.2805 14.0507 9.66188 13.624C9.06454 13.1973 8.41388 12.792 7.70988 12.408C7.15521 12.1093 6.53654 11.768 5.85388 11.384C5.17121 10.9787 4.52054 10.52 3.90188 10.008C3.30454 9.47467 2.79254 8.86667 2.36588 8.184C1.96054 7.50133 1.75788 6.72267 1.75788 5.848C1.75788 4.26933 2.32321 3 3.45388 2.04C4.58454 1.08 6.17388 0.599998 8.22188 0.599998C9.26721 0.599998 10.2272 0.706665 11.1019 0.919998C11.9979 1.112 12.8725 1.368 13.7259 1.688L13.6299 5.88L12.6699 6.008ZM28.1271 20.632C27.8285 21.0587 27.4551 21.4533 27.0071 21.816C26.5591 22.1573 26.0898 22.4453 25.5991 22.68C25.1085 22.9147 24.6178 23.096 24.1271 23.224C23.6365 23.352 23.1991 23.416 22.8151 23.416C22.3458 23.416 21.8551 23.3413 21.3431 23.192C20.8311 23.064 20.3618 22.84 19.9351 22.52C19.5085 22.2 19.1565 21.7733 18.8791 21.24C18.6018 20.6853 18.4631 20.0027 18.4631 19.192C18.4631 18.1253 18.8045 17.1973 19.4871 16.408C20.1698 15.6187 21.0018 14.968 21.9831 14.456C22.9858 13.944 24.0418 13.5707 25.1511 13.336C26.2605 13.08 27.2418 12.952 28.0951 12.952V11.32C28.0951 10.872 28.0205 10.4453 27.8711 10.04C27.7431 9.61333 27.5405 9.24 27.2631 8.92C26.9858 8.57867 26.6338 8.312 26.2071 8.12C25.7805 7.90667 25.2791 7.81067 24.7031 7.832C24.1911 7.85333 23.7538 7.93867 23.3911 8.088C23.0498 8.216 22.7405 8.41867 22.4631 8.696C22.2925 8.888 22.1645 9.112 22.0791 9.368C21.9938 9.60267 21.9298 9.848 21.8871 10.104C21.8658 10.3387 21.8551 10.5733 21.8551 10.808C21.8765 11.0213 21.8871 11.2027 21.8871 11.352C21.6951 11.544 21.4605 11.6827 21.1831 11.768C20.9271 11.8533 20.6711 11.8853 20.4151 11.864C20.1591 11.8213 19.9351 11.7147 19.7431 11.544C19.5511 11.3733 19.4445 11.128 19.4231 10.808C19.3591 10.104 19.5298 9.496 19.9351 8.984C20.3618 8.472 20.8845 8.04533 21.5031 7.704C22.1431 7.36267 22.8258 7.10667 23.5511 6.936C24.2765 6.76533 24.9271 6.68 25.5031 6.68C27.1671 6.68 28.3831 7.07467 29.1511 7.864C29.9405 8.632 30.3351 9.752 30.3351 11.224V20.504C30.3351 21.08 30.4205 21.4533 30.5911 21.624C30.7618 21.7733 30.9858 21.848 31.2631 21.848C31.5405 21.848 31.7325 21.848 31.8391 21.848C31.9671 21.8267 32.1485 21.8053 32.3831 21.784V22.552C31.9138 22.8507 31.4018 23.064 30.8471 23.192C30.3138 23.3413 29.9085 23.416 29.6311 23.416C29.3538 23.416 29.1191 23.3307 28.9271 23.16C28.7351 23.0107 28.5751 22.808 28.4471 22.552C28.3405 22.2747 28.2551 21.976 28.1911 21.656C28.1485 21.3147 28.1271 20.9733 28.1271 20.632ZM24.0631 21.656C24.4045 21.6347 24.7565 21.5707 25.1191 21.464C25.4818 21.3573 25.8445 21.2187 26.2071 21.048C26.5698 20.856 26.9111 20.6427 27.2311 20.408C27.5511 20.152 27.8391 19.8747 28.0951 19.576V14.168C27.5191 14.168 26.8258 14.264 26.0151 14.456C25.2045 14.648 24.4151 14.936 23.6471 15.32C22.9005 15.704 22.2605 16.1947 21.7271 16.792C21.2151 17.368 20.9591 18.0507 20.9591 18.84C20.9591 19.4373 21.0338 19.928 21.1831 20.312C21.3538 20.6747 21.5778 20.9627 21.8551 21.176C22.1325 21.368 22.4631 21.5067 22.8471 21.592C23.2311 21.656 23.6365 21.6773 24.0631 21.656ZM36.6196 29.016C36.8756 28.8667 37.217 28.632 37.6436 28.312C38.0703 27.992 38.5076 27.5653 38.9556 27.032C39.425 26.52 39.8943 25.8693 40.3636 25.08C40.833 24.2907 41.249 23.352 41.6116 22.264L36.4276 10.296C36.2356 9.86933 36.065 9.51733 35.9156 9.24C35.7663 8.96267 35.6063 8.73867 35.4356 8.568C35.265 8.39733 35.0623 8.28 34.8276 8.216C34.6143 8.13067 34.337 8.06667 33.9956 8.024V7.096C34.4863 7.11733 34.9343 7.13867 35.3396 7.16C35.7663 7.16 36.1823 7.16 36.5876 7.16C37.121 7.16 37.6223 7.16 38.0916 7.16C38.561 7.13867 39.0836 7.11733 39.6596 7.096V8.024C38.849 8.10933 38.4436 8.42933 38.4436 8.984C38.4436 9.24 38.5076 9.50667 38.6356 9.784L42.5396 19.544H42.8596C43.5423 17.88 44.1716 16.2693 44.7476 14.712C45.345 13.1333 45.9103 11.5013 46.4436 9.816C46.5503 9.45333 46.6036 9.176 46.6036 8.984C46.6036 8.70667 46.497 8.49333 46.2836 8.344C46.0703 8.19467 45.6863 8.09867 45.1316 8.056V7.128C45.4303 7.14933 45.7076 7.16 45.9636 7.16C46.241 7.16 46.5076 7.16 46.7636 7.16C47.297 7.16 47.8303 7.16 48.3636 7.16C48.897 7.13867 49.4943 7.11733 50.1556 7.096V8.024C49.8783 8.06667 49.633 8.13067 49.4196 8.216C49.2276 8.28 49.0463 8.39733 48.8756 8.568C48.705 8.71733 48.5343 8.93067 48.3636 9.208C48.2143 9.464 48.065 9.79467 47.9156 10.2C47.2116 12.0773 46.4756 13.9653 45.7076 15.864C44.961 17.7627 44.2036 19.6613 43.4356 21.56C43.2436 22.0293 43.0196 22.5733 42.7636 23.192C42.5076 23.832 42.2303 24.4827 41.9316 25.144C41.633 25.8267 41.3236 26.4987 41.0036 27.16C40.705 27.8213 40.4063 28.408 40.1076 28.92C39.425 30.136 38.7316 30.744 38.0276 30.744C37.5583 30.744 37.2063 30.5733 36.9716 30.232C36.737 29.912 36.6196 29.5067 36.6196 29.016ZM71.5171 12.088C71.2825 12.5147 71.1438 12.9093 71.1011 13.272C71.0585 13.6347 71.0371 13.9333 71.0371 14.168V19.256C71.0371 19.9387 71.0585 20.472 71.1011 20.856C71.1651 21.24 71.2931 21.5387 71.4851 21.752C71.6985 21.944 71.9865 22.072 72.3491 22.136C72.7331 22.2 73.2451 22.2533 73.8851 22.296V23.192H65.8851V22.296C66.5251 22.2533 67.0371 22.2 67.4211 22.136C67.8051 22.0507 68.0931 21.912 68.2851 21.72C68.4771 21.5067 68.5945 21.208 68.6371 20.824C68.7011 20.44 68.7331 19.9173 68.7331 19.256V14.168C68.7118 13.784 68.5945 13.4213 68.3811 13.08C68.1678 12.7173 67.9758 12.3867 67.8051 12.088L63.1011 3.96C62.6531 3.08533 62.1945 2.49867 61.7251 2.2C61.2558 1.88 60.6585 1.69867 59.9331 1.656V0.792C60.4878 0.813333 61.0425 0.823999 61.5971 0.823999C62.1731 0.823999 62.7705 0.823999 63.3891 0.823999C64.0078 0.823999 64.5945 0.823999 65.1491 0.823999C65.7251 0.823999 66.2905 0.813333 66.8451 0.792V1.656L66.0771 1.72C65.5865 1.76267 65.2878 1.88 65.1811 2.072C65.0958 2.264 65.1705 2.57333 65.4051 3L70.0771 11.544H70.3651L74.6531 3.512C74.7811 3.21333 74.8878 2.95733 74.9731 2.744C75.0798 2.53067 75.1118 2.34933 75.0691 2.2C75.0265 2.05067 74.9091 1.944 74.7171 1.88C74.5251 1.79467 74.2051 1.73067 73.7571 1.688V0.792C74.3758 0.813333 74.9305 0.823999 75.4211 0.823999C75.9331 0.823999 76.4345 0.823999 76.9251 0.823999C77.4158 0.823999 77.8531 0.823999 78.2371 0.823999C78.6211 0.823999 79.0265 0.813333 79.4531 0.792V1.688C78.8345 1.73067 78.2585 1.90133 77.7251 2.2C77.2131 2.47733 76.7651 2.95733 76.3811 3.64L71.5171 12.088ZM79.7994 15.224C79.7994 14.008 79.9914 12.8773 80.3754 11.832C80.7807 10.7867 81.3247 9.88 82.0074 9.112C82.7114 8.344 83.522 7.74667 84.4394 7.32C85.3567 6.89333 86.3487 6.68 87.4154 6.68C88.3114 6.68 89.122 6.85067 89.8474 7.192C90.594 7.53333 91.2234 7.992 91.7354 8.568C92.2687 9.144 92.674 9.82667 92.9514 10.616C93.25 11.384 93.3994 12.216 93.3994 13.112C93.3994 13.304 93.3887 13.4853 93.3674 13.656C93.3674 13.8267 93.3567 13.9973 93.3354 14.168L82.1034 14.232C82.1034 16.6853 82.6474 18.52 83.7354 19.736C84.8447 20.952 86.338 21.56 88.2154 21.56C89.1114 21.56 89.9647 21.4213 90.7754 21.144C91.586 20.8453 92.2474 20.4933 92.7594 20.088L93.2714 20.888C92.61 21.5707 91.746 22.168 90.6794 22.68C89.6127 23.1707 88.4074 23.416 87.0634 23.416C85.954 23.416 84.9514 23.2133 84.0554 22.808C83.1594 22.3813 82.3914 21.8053 81.7514 21.08C81.1327 20.3547 80.6527 19.4907 80.3114 18.488C79.97 17.4853 79.7994 16.3973 79.7994 15.224ZM86.9354 8.152C85.5274 8.152 84.4287 8.58933 83.6394 9.464C82.85 10.3387 82.37 11.48 82.1994 12.888L90.9034 12.696C90.9034 12.0773 90.8074 11.5013 90.6154 10.968C90.4447 10.4133 90.178 9.93333 89.8154 9.528C89.474 9.10133 89.058 8.77067 88.5674 8.536C88.0767 8.28 87.5327 8.152 86.9354 8.152ZM97.3881 18.2C97.4735 18.7547 97.6121 19.2667 97.8041 19.736C98.0175 20.2053 98.2841 20.6213 98.6041 20.984C98.9241 21.3467 99.3081 21.6453 99.7561 21.88C100.225 22.0933 100.759 22.2107 101.356 22.232C101.868 22.232 102.337 22.1573 102.764 22.008C103.212 21.8373 103.596 21.624 103.916 21.368C104.236 21.0907 104.481 20.7707 104.652 20.408C104.844 20.0453 104.94 19.6613 104.94 19.256C104.94 18.5307 104.748 17.944 104.364 17.496C103.98 17.0267 103.489 16.632 102.892 16.312C102.316 15.992 101.687 15.704 101.004 15.448C100.321 15.1707 99.6815 14.8613 99.0841 14.52C98.5081 14.1573 98.0281 13.72 97.6441 13.208C97.2601 12.6747 97.0681 11.9813 97.0681 11.128C97.0681 10.616 97.1641 10.104 97.3561 9.592C97.5481 9.05867 97.8575 8.57867 98.2841 8.152C98.7108 7.72533 99.2548 7.37333 99.9161 7.096C100.599 6.81867 101.409 6.68 102.348 6.68C102.625 6.68 102.935 6.712 103.276 6.776C103.639 6.81867 104.012 6.89333 104.396 7C104.78 7.10667 105.153 7.23467 105.516 7.384C105.879 7.53333 106.199 7.71467 106.476 7.928L106.284 10.712L105.548 10.808C105.377 9.912 105.015 9.208 104.46 8.696C103.905 8.184 103.084 7.90667 101.996 7.864C101.633 7.864 101.281 7.928 100.94 8.056C100.599 8.184 100.289 8.36533 100.012 8.6C99.7348 8.83467 99.5108 9.12267 99.3401 9.464C99.1908 9.80533 99.1161 10.1893 99.1161 10.616C99.1161 11.2987 99.3188 11.8533 99.7241 12.28C100.129 12.6853 100.631 13.048 101.228 13.368C101.847 13.6667 102.508 13.9547 103.212 14.232C103.916 14.488 104.567 14.7973 105.164 15.16C105.783 15.5227 106.295 15.9813 106.7 16.536C107.105 17.0693 107.308 17.7627 107.308 18.616C107.308 19.192 107.18 19.768 106.924 20.344C106.668 20.8987 106.284 21.4107 105.772 21.88C105.281 22.328 104.652 22.6907 103.884 22.968C103.137 23.2453 102.252 23.384 101.228 23.384C100.439 23.384 99.6601 23.288 98.8921 23.096C98.1455 22.904 97.4415 22.5947 96.7801 22.168C96.7375 21.9547 96.7055 21.6667 96.6841 21.304C96.6628 20.9413 96.6415 20.568 96.6201 20.184C96.6201 19.8 96.6095 19.4373 96.5881 19.096C96.5881 18.7333 96.5881 18.456 96.5881 18.264L97.3881 18.2Z" fill="url(#paint0_linear_23_265)"/>
</g>
<defs>
<filter id="filter0_diii_23_265" x="0.181885" y="0.600098" width="108.126" height="32.1438" filterUnits="userSpaceOnUse" color-interpolation-filters="sRGB">
<feFlood flood-opacity="0" result="BackgroundImageFix"/>
<feColorMatrix in="SourceAlpha" type="matrix" values="0 0 0 0 0 0 0 0 0 0 0 0 0 0 0 0 0 0 127 0" result="hardAlpha"/>
<feOffset dy="1"/>
<feGaussianBlur stdDeviation="0.5"/>
<feComposite in2="hardAlpha" operator="out"/>
<feColorMatrix type="matrix" values="0 0 0 0 0.0813117 0 0 0 0 0.163053 0 0 0 0 0.108559 0 0 0 0.25 0"/>
<feBlend mode="normal" in2="BackgroundImageFix" result="effect1_dropShadow_23_265"/>
<feBlend mode="normal" in="SourceGraphic" in2="effect1_dropShadow_23_265" result="shape"/>
<feColorMatrix in="SourceAlpha" type="matrix" values="0 0 0 0 0 0 0 0 0 0 0 0 0 0 0 0 0 0 127 0" result="hardAlpha"/>
<feOffset dy="1"/>
<feGaussianBlur stdDeviation="1"/>
<feComposite in2="hardAlpha" operator="arithmetic" k2="-1" k3="1"/>
<feColorMatrix type="matrix" values="0 0 0 0 1 0 0 0 0 1 0 0 0 0 1 0 0 0 0.25 0"/>
<feBlend mode="normal" in2="shape" result="effect2_innerShadow_23_265"/>
<feColorMatrix in="SourceAlpha" type="matrix" values="0 0 0 0 0 0 0 0 0 0 0 0 0 0 0 0 0 0 127 0" result="hardAlpha"/>
<feOffset dx="1"/>
<feGaussianBlur stdDeviation="0.5"/>
<feComposite in2="hardAlpha" operator="arithmetic" k2="-1" k3="1"/>
<feColorMatrix type="matrix" values="0 0 0 0 0.0289063 0 0 0 0 0 0 0 0 0 0 0 0 0 0.5 0"/>
<feBlend mode="normal" in2="effect2_innerShadow_23_265" result="effect3_innerShadow_23_265"/>
<feColorMatrix in="SourceAlpha" type="matrix" values="0 0 0 0 0 0 0 0 0 0 0 0 0 0 0 0 0 0 127 0" result="hardAlpha"/>
<feOffset dy="1"/>
<feGaussianBlur stdDeviation="0.1"/>
<feComposite in2="hardAlpha" operator="arithmetic" k2="-1" k3="1"/>
<feColorMatrix type="matrix" values="0 0 0 0 1 0 0 0 0 1 0 0 0 0 1 0 0 0 0.2 0"/>
<feBlend mode="normal" in2="effect3_innerShadow_23_265" result="effect4_innerShadow_23_265"/>
</filter>
<linearGradient id="paint0_linear_23_265" x1="54" y1="-6" x2="54" y2="32" gradientUnits="userSpaceOnUse">
<stop stop-color="#F7C469"/>
<stop offset="1" stop-color="#80560B"/>
</linearGradient>
</defs>
</svg>
